<?xml version="1.0" standalone="no"?><!DOCTYPE svg PUBLIC "-//W3C//DTD SVG 1.1//EN" "http://www.w3.org/Graphics/SVG/1.1/DTD/svg11.dtd"><svg class="icon" height="512" viewBox="0 0 1024 1024" version="1.1" xmlns="http://www.w3.org/2000/svg"><path d="M479.136 693.728a31.168 31.168 0 0 0 21.28-11.008l214.592-255.744a30.848 30.848 0 0 0-3.616-43.616 31.04 31.04 0 0 0-43.584 4.032l-193.536 230.656-100.48-100.48a30.816 30.816 0 0 0-43.712-0.128 31.04 31.04 0 0 0 0.128 43.68l123.648 123.648c6.944 6.912 16.288 9.92 25.28 8.96zM512 864C317.6 864 160 706.4 160 512S317.6 160 512 160s352 157.6 352 352-157.6 352-352 352z" fill="#6DC33A" /></svg>